<svg id="Layer_1" data-name="Layer 1" xmlns="http://www.w3.org/2000/svg" viewBox="0 0 1080 1080"><defs><style>.cls-1{fill:#1e2346;stroke:#121212;stroke-miterlimit:10;stroke-width:0.36px;}.cls-2{fill:#48ae4d;}</style></defs><path class="cls-1" d="M507.12,626.38l-53.5-53.5a46.5,46.5,0,0,1,0-65.76l53.5-53.5a46.5,46.5,0,0,1,65.76,0l53.5,53.5a46.5,46.5,0,0,1,0,65.76l-53.5,53.5A46.5,46.5,0,0,1,507.12,626.38Z"/><circle class="cls-2" cx="540.71" cy="499.02" r="11.59"/><path class="cls-2" d="M552.3,525.25c0,6.4-8.43,45.77-10.73,52-3.92-7.45-12.46-45.61-12.46-52a11.6,11.6,0,1,1,23.19,0Z"/><path class="cls-2" d="M523.31,513.4c-14.93,7-21.87-2.25-39.06-5.3-4.77-.84-8.78.32-11.28,4.47s-.32,9.76,1,12.94c4.43,10.4,15.38,23.73,18.55,28.48-13-3.52-28.19,7-29.36,10.45,14.17-7.48,24.12,6,32.81,10.26,4,2,13.92,4.62,19-.07,4.22-3.86,5.27-8.36,3.44-14.81-1.9-6.71-17.39-27.59-22.45-34.22C512.54,531.44,523.31,513.4,523.31,513.4Z"/><path class="cls-2" d="M557.75,513.4c14.93,7,21.87-2.25,39-5.3,4.78-.84,8.78.32,11.28,4.47s.32,9.76-1,12.94c-4.43,10.4-15.39,23.73-18.55,28.48,13-3.52,28.19,7,29.36,10.45-14.18-7.48-24.12,6-32.82,10.26-4,2-13.91,4.62-19-.07-4.21-3.86-5.27-8.36-3.44-14.81,1.9-6.71,17.4-27.59,22.45-34.22C568.51,531.44,557.75,513.4,557.75,513.4Z"/></svg>